<svg viewBox="0 0 1440 900" xmlns="http://www.w3.org/2000/svg">
  <defs>
    <linearGradient id="headerGrad" x1="0%" y1="0%" x2="100%" y2="100%">
      <stop offset="0%" style="stop-color:#FEFCE8"/>
      <stop offset="100%" style="stop-color:#FDF4FF"/>
    </linearGradient>
    <linearGradient id="fabGrad" x1="0%" y1="0%" x2="100%" y2="100%">
      <stop offset="0%" style="stop-color:#A78BFA"/>
      <stop offset="100%" style="stop-color:#8B5CF6"/>
    </linearGradient>
    <filter id="softShadow" x="-20%" y="-20%" width="140%" height="140%">
      <feDropShadow dx="0" dy="4" stdDeviation="8" flood-color="#8B5CF6" flood-opacity="0.15"/>
    </filter>
    <filter id="cardShadow" x="-20%" y="-20%" width="140%" height="140%">
      <feDropShadow dx="0" dy="2" stdDeviation="6" flood-color="#000000" flood-opacity="0.06"/>
    </filter>
  </defs>
  
  <!-- Background -->
  <rect width="1440" height="900" fill="url(#headerGrad)"/>
  
  <!-- Decorative brain illustration (top right) -->
  <g transform="translate(1200, 60)">
    <ellipse cx="60" cy="50" rx="50" ry="40" fill="#F9A8D4" opacity="0.3"/>
    <ellipse cx="60" cy="50" rx="40" ry="32" fill="#F9A8D4" opacity="0.5"/>
    <circle cx="45" cy="45" r="6" fill="#374151"/>
    <circle cx="75" cy="45" r="6" fill="#374151"/>
    <ellipse cx="60" cy="58" rx="8" ry="5" fill="#FDBA74"/>
    <path d="M 50 25 Q 60 15 70 25" stroke="#A78BFA" stroke-width="3" fill="none" stroke-linecap="round"/>
  </g>
  
  <!-- Header -->
  <g transform="translate(80, 40)">
    <!-- Logo -->
    <circle cx="30" cy="30" r="28" fill="#F9A8D4"/>
    <text x="30" y="38" font-family="system-ui, sans-serif" font-size="24" font-weight="bold" fill="#7C3AED" text-anchor="middle">🧠</text>
    <text x="70" y="38" font-family="system-ui, sans-serif" font-size="24" font-weight="700" fill="#374151">Knowbie</text>
    
    <!-- Nav items -->
    <text x="1000" y="38" font-family="system-ui, sans-serif" font-size="14" fill="#6B7280">All Items</text>
    <text x="1080" y="38" font-family="system-ui, sans-serif" font-size="14" fill="#6B7280">Tags</text>
    <text x="1140" y="38" font-family="system-ui, sans-serif" font-size="14" fill="#6B7280">Settings</text>
    
    <!-- User avatar -->
    <circle cx="1280" cy="30" r="20" fill="#A78BFA"/>
    <text x="1280" y="36" font-family="system-ui, sans-serif" font-size="14" fill="white" text-anchor="middle">A</text>
  </g>
  
  <!-- Main Content Area -->
  <g transform="translate(80, 120)">
    <!-- Search Section -->
    <g transform="translate(0, 0)">
      <rect x="0" y="0" width="1280" height="72" rx="16" fill="white" filter="url(#cardShadow)"/>
      <text x="24" y="42" font-family="system-ui, sans-serif" font-size="20" fill="#9CA3AF">🔍</text>
      <text x="60" y="42" font-family="system-ui, sans-serif" font-size="16" fill="#9CA3AF">Search your knowledge... (AI-powered semantic search)</text>
      <text x="1180" y="42" font-family="system-ui, sans-serif" font-size="14" fill="#A78BFA">⌘K</text>
    </g>
    
    <!-- Tag Filters -->
    <g transform="translate(0, 96)">
      <rect x="0" y="0" width="80" height="36" rx="18" fill="#A78BFA"/>
      <text x="40" y="24" font-family="system-ui, sans-serif" font-size="13" fill="white" text-anchor="middle" font-weight="500">All</text>
      
      <rect x="96" y="0" width="100" height="36" rx="18" fill="white" stroke="#E5E7EB" stroke-width="1"/>
      <text x="146" y="24" font-family="system-ui, sans-serif" font-size="13" fill="#374151" text-anchor="middle">💡 Ideas</text>
      
      <rect x="212" y="0" width="100" height="36" rx="18" fill="white" stroke="#E5E7EB" stroke-width="1"/>
      <text x="262" y="24" font-family="system-ui, sans-serif" font-size="13" fill="#374151" text-anchor="middle">📎 Links</text>
      
      <rect x="328" y="0" width="100" height="36" rx="18" fill="white" stroke="#E5E7EB" stroke-width="1"/>
      <text x="378" y="24" font-family="system-ui, sans-serif" font-size="13" fill="#374151" text-anchor="middle">💻 Code</text>
      
      <rect x="444" y="0" width="100" height="36" rx="18" fill="white" stroke="#E5E7EB" stroke-width="1"/>
      <text x="494" y="24" font-family="system-ui, sans-serif" font-size="13" fill="#374151" text-anchor="middle">📄 Docs</text>
      
      <rect x="560" y="0" width="40" height="36" rx="18" fill="white" stroke="#E5E7EB" stroke-width="1"/>
      <text x="580" y="24" font-family="system-ui, sans-serif" font-size="13" fill="#374151" text-anchor="middle">+</text>
    </g>
    
    <!-- Knowledge Grid -->
    <g transform="translate(0, 156)">
      <!-- Card 1: Link -->
      <g transform="translate(0, 0)">
        <rect x="0" y="0" width="300" height="200" rx="16" fill="white" filter="url(#cardShadow)"/>
        <rect x="0" y="0" width="300" height="100" rx="16" fill="#F3E8FF"/>
        <rect x="0" y="84" width="300" height="16" fill="#F3E8FF"/>
        <text x="24" y="60" font-family="system-ui, sans-serif" font-size="32">🔗</text>
        <rect x="220" y="20" width="56" height="24" rx="12" fill="#A78BFA"/>
        <text x="248" y="36" font-family="system-ui, sans-serif" font-size="11" fill="white" text-anchor="middle">Link</text>
        <text x="24" y="130" font-family="system-ui, sans-serif" font-size="15" font-weight="600" fill="#374151">FastAPI Best Practices 2024</text>
        <text x="24" y="155" font-family="system-ui, sans-serif" font-size="13" fill="#6B7280">A comprehensive guide to building...</text>
        <text x="24" y="180" font-family="system-ui, sans-serif" font-size="12" fill="#A78BFA">github.com</text>
      </g>
      
      <!-- Card 2: Code -->
      <g transform="translate(320, 0)">
        <rect x="0" y="0" width="300" height="200" rx="16" fill="white" filter="url(#cardShadow)"/>
        <rect x="0" y="0" width="300" height="100" rx="16" fill="#ECFDF5"/>
        <rect x="0" y="84" width="300" height="16" fill="#ECFDF5"/>
        <text x="24" y="60" font-family="system-ui, sans-serif" font-size="32">💻</text>
        <rect x="210" y="20" width="66" height="24" rx="12" fill="#6EE7B7"/>
        <text x="243" y="36" font-family="system-ui, sans-serif" font-size="11" fill="#065F46" text-anchor="middle">Code</text>
        <text x="24" y="130" font-family="system-ui, sans-serif" font-size="15" font-weight="600" fill="#374151">Docker Compose Template</text>
        <text x="24" y="155" font-family="system-ui, sans-serif" font-size="13" fill="#6B7280">version: '3.8' services: app...</text>
        <text x="24" y="180" font-family="system-ui, sans-serif" font-size="12" fill="#A78BFA">Added 2 hours ago</text>
      </g>
      
      <!-- Card 3: Note -->
      <g transform="translate(640, 0)">
        <rect x="0" y="0" width="300" height="200" rx="16" fill="white" filter="url(#cardShadow)"/>
        <rect x="0" y="0" width="300" height="100" rx="16" fill="#FEF3C7"/>
        <rect x="0" y="84" width="300" height="16" fill="#FEF3C7"/>
        <text x="24" y="60" font-family="system-ui, sans-serif" font-size="32">📝</text>
        <rect x="210" y="20" width="66" height="24" rx="12" fill="#FDBA74"/>
        <text x="243" y="36" font-family="system-ui, sans-serif" font-size="11" fill="#92400E" text-anchor="middle">Note</text>
        <text x="24" y="130" font-family="system-ui, sans-serif" font-size="15" font-weight="600" fill="#374151">Meeting Notes: Design Sync</text>
        <text x="24" y="155" font-family="system-ui, sans-serif" font-size="13" fill="#6B7280">- New color palette approved...</text>
        <text x="24" y="180" font-family="system-ui, sans-serif" font-size="12" fill="#A78BFA">Added yesterday</text>
      </g>
      
      <!-- Card 4: File -->
      <g transform="translate(960, 0)">
        <rect x="0" y="0" width="300" height="200" rx="16" fill="white" filter="url(#cardShadow)"/>
        <rect x="0" y="0" width="300" height="100" rx="16" fill="#FEE2E2"/>
        <rect x="0" y="84" width="300" height="16" fill="#FEE2E2"/>
        <text x="24" y="60" font-family="system-ui, sans-serif" font-size="32">📎</text>
        <rect x="210" y="20" width="66" height="24" rx="12" fill="#F9A8D4"/>
        <text x="243" y="36" font-family="system-ui, sans-serif" font-size="11" fill="#831843" text-anchor="middle">File</text>
        <text x="24" y="130" font-family="system-ui, sans-serif" font-size="15" font-weight="600" fill="#374151">Q4 Roadmap.pdf</text>
        <text x="24" y="155" font-family="system-ui, sans-serif" font-size="13" fill="#6B7280">2.4 MB • PDF Document</text>
        <text x="24" y="180" font-family="system-ui, sans-serif" font-size="12" fill="#A78BFA">Added 3 days ago</text>
      </g>
      
      <!-- Card 5: Idea -->
      <g transform="translate(0, 224)">
        <rect x="0" y="0" width="300" height="200" rx="16" fill="white" filter="url(#cardShadow)"/>
        <rect x="0" y="0" width="300" height="100" rx="16" fill="#E0E7FF"/>
        <rect x="0" y="84" width="300" height="16" fill="#E0E7FF"/>
        <text x="24" y="60" font-family="system-ui, sans-serif" font-size="32">💡</text>
        <rect x="210" y="20" width="66" height="24" rx="12" fill="#818CF8"/>
        <text x="243" y="36" font-family="system-ui, sans-serif" font-size="11" fill="white" text-anchor="middle">Idea</text>
        <text x="24" y="130" font-family="system-ui, sans-serif" font-size="15" font-weight="600" fill="#374151">AI-powered Tag Suggestion</text>
        <text x="24" y="155" font-family="system-ui, sans-serif" font-size="13" fill="#6B7280">Auto-suggest tags based on...</text>
        <text x="24" y="180" font-family="system-ui, sans-serif" font-size="12" fill="#A78BFA">Added 1 week ago</text>
      </g>
    </g>
  </g>
  
  <!-- FAB Button -->
  <g transform="translate(1340, 780)">
    <circle cx="40" cy="40" r="40" fill="url(#fabGrad)" filter="url(#softShadow)"/>
    <text x="40" y="52" font-family="system-ui, sans-serif" font-size="36" fill="white" text-anchor="middle">+</text>
  </g>
  
  <!-- Bottom Info -->
  <text x="720" y="860" font-family="system-ui, sans-serif" font-size="12" fill="#9CA3AF" text-anchor="middle">128 items • 24 tags • Last updated: 2 mins ago</text>
</svg>